<svg xmlns="http://www.w3.org/2000/svg" width="131.342" height="140.187" viewBox="0 0 131.342 140.187">
  <path id="noun-the-statue-of-liberty-2322253" d="M215.81,142.534a40.88,40.88,0,0,0-7.288-17.446,13.325,13.325,0,0,0-10.776-5.486h-23a16.654,16.654,0,0,1-7.09-1.584,64.787,64.787,0,0,1-17.934-12.509q-2.783-5.149-5.383-10.392a.663.663,0,0,0,.228.071l16.957,2.335a28.124,28.124,0,0,0,10.921,15.92,8.331,8.331,0,0,0,9.668,0A28.123,28.123,0,0,0,193.037,97.5l16.8-2.314a.666.666,0,0,0,0-1.32l-15.953-2.2h0q.019-.75,0-1.5a9.948,9.948,0,0,0-.217-1.938l12.116-9.412a.666.666,0,0,0-.662-1.144l-13.937,5.676a17.789,17.789,0,0,0-2.758-2.758l5.676-13.936a.666.666,0,0,0-1.144-.66l-9.23,11.884a17.909,17.909,0,0,0-3.767-1.009l-2.053-14.908h0a.666.666,0,0,0-1.321,0L174.54,76.872h0a17.908,17.908,0,0,0-3.767,1.009L161.543,66a.667.667,0,0,0-1.145.66l5.676,13.936h0a17.788,17.788,0,0,0-2.758,2.758l-13.936-5.676a.666.666,0,0,0-.663,1.144l12.116,9.412a9.941,9.941,0,0,0-.217,1.938q-.019.742,0,1.484l-16.1,2.217a.666.666,0,0,0-.566.563q-5.968-12.1-10.947-24.656l-1.839-10.633h3.971a1.666,1.666,0,0,0,1.665-1.666V51.7a1.666,1.666,0,0,0-1.665-1.666h-5.683a15.1,15.1,0,0,0,4.428-6.421,11.722,11.722,0,0,0-2.569-11.628,6.787,6.787,0,0,1-2.478,5.244,1,1,0,0,1-1.53-1.216,9.573,9.573,0,0,0,.976-4.953,12.758,12.758,0,0,0-5.374-7.728,12.8,12.8,0,0,1-4.641,7.993,24.706,24.706,0,0,0-5.608,7.355,9.923,9.923,0,0,0,2.794,11.352h-4.267a1.666,1.666,0,0,0-1.665,1.666v5.777a1.666,1.666,0,0,0,1.665,1.666H115.2a7.666,7.666,0,0,0,1.434,8.564,12.617,12.617,0,0,0,6.2,3.777,145.883,145.883,0,0,0,11.452,45.191,23.633,23.633,0,0,0-7.141,24.32,13.525,13.525,0,0,0,12.047,9.716,14.717,14.717,0,0,0,8.435,12.808h84.906l8.132-15.05h0a1.668,1.668,0,0,0-.674-2.258l-17.779-9.587h0a1.665,1.665,0,0,0-2.257.674l-2.939,5.44a.666.666,0,0,1-1.244-.209Z" transform="translate(-109.522 -23.332)" fill="#303336"/>
</svg>
