<svg id="Group_26275" data-name="Group 26275" xmlns="http://www.w3.org/2000/svg" xmlns:xlink="http://www.w3.org/1999/xlink" width="95.38" height="112.604" viewBox="0 0 95.38 112.604">
  <defs>
    <clipPath id="clip-path">
      <rect id="Rectangle_4610" data-name="Rectangle 4610" width="95.38" height="112.605" fill="#303336"/>
    </clipPath>
  </defs>
  <g id="Group_26274" data-name="Group 26274" clip-path="url(#clip-path)">
    <path id="Path_21828" data-name="Path 21828" d="M26.926,62.285c.568,12.337,6.392,22.357,18.047,28.779,1.238.682,1.523,1.271.948,2.461a13.626,13.626,0,0,0-.608,1.7c-1.056,3.228-1.054,3.228-3.957,1.642a40.364,40.364,0,1,1,36.991.792c-1.287.63-1.72.407-2.034-.926-.371-1.571-1.548-3.217-1.263-4.6.277-1.345,2.432-1.658,3.724-2.487A33.792,33.792,0,0,0,92.6,51.026C87.787,36.212,73.839,26.889,57.929,27.848c-14.614.881-27.462,12.279-30.336,26.919a46.116,46.116,0,0,0-.666,7.518" transform="translate(-12.876 -13.387)" fill="#303336"/>
    <path id="Path_21829" data-name="Path 21829" d="M60.744,274.809q18.275,0,36.551,0a4.068,4.068,0,0,1,3.631,5.785c-.2.443-.542.391-.894.393-.543,0-1.085,0-1.628,0q-38,0-76,.037c-1.547,0-2.067-.271-1.989-1.937.159-3.369.947-4.275,4.318-4.275H60.744" transform="translate(-13.02 -175.291)" fill="#303336"/>
    <path id="Path_21830" data-name="Path 21830" d="M60.455,293.786c12.782,0,25.564.027,38.345-.036,1.5-.007,1.917.338,1.854,1.879-.142,3.508-.869,4.326-4.417,4.326H24.43c-3.54,0-5.13-2.078-4.287-5.549.254-1.046,1.055-.6,1.6-.6,7.717-.031,15.435-.021,23.152-.021H60.455" transform="translate(-12.707 -187.351)" fill="#303336"/>
    <path id="Path_21831" data-name="Path 21831" d="M110.838,229.65a42.1,42.1,0,0,1-10.525-1.344c-1.2-.287-1.6-.674-1.1-1.9.618-1.5.662-3.524,1.718-4.469,1.144-1.024,2.96.371,4.507.569a35.228,35.228,0,0,0,14.158-.777c.938-.263,1.373-.119,1.627.889a35.425,35.425,0,0,0,1.356,4.1c.357.925.025,1.257-.838,1.483a39.88,39.88,0,0,1-10.906,1.452" transform="translate(-63.15 -141.328)" fill="#303336"/>
    <path id="Path_21832" data-name="Path 21832" d="M92.1,145.923c2.183,1.672,2.083,1.6,1.162,4.416q-6.4,19.542-12.776,39.092c-.854,2.613-.854,2.614-3.933,2.279,1.227-3.789,2.433-7.547,3.659-11.3q5.434-16.63,10.915-33.244c.143-.431-.183-1.466.939-1.259l.034.014" transform="translate(-48.83 -93.054)" fill="#303336"/>
    <path id="Path_21833" data-name="Path 21833" d="M140.71,145.121c.717.341.677,1.1.872,1.693q7.135,21.676,14.222,43.367a9.222,9.222,0,0,1,.215,1.034c-2.984.357-2.976.355-3.83-2.257q-6.525-19.972-13.079-39.935c-.409-1.24-1.046-2.4.387-3.283h0a1.437,1.437,0,0,1,1.185-.628Z" transform="translate(-88.415 -92.563)" fill="#303336"/>
    <path id="Path_21834" data-name="Path 21834" d="M220.731,46.416a2.434,2.434,0,0,1-2.394-2.6,2.556,2.556,0,0,1,2.519-2.336,2.646,2.646,0,0,1,2.436,2.46,2.551,2.551,0,0,1-2.562,2.475" transform="translate(-139.268 -26.459)" fill="#303336"/>
    <path id="Path_21835" data-name="Path 21835" d="M36.42,44a2.471,2.471,0,0,1-2.6,2.394,2.5,2.5,0,0,1-2.359-2.471,2.659,2.659,0,0,1,2.621-2.442A2.56,2.56,0,0,1,36.42,44" transform="translate(-20.069 -26.46)" fill="#303336"/>
    <path id="Path_21836" data-name="Path 21836" d="M53.634,227.286a2.485,2.485,0,0,1,2.393,2.428,2.436,2.436,0,1,1-4.863-.087,2.442,2.442,0,0,1,2.47-2.341" transform="translate(-32.634 -144.979)" fill="#303336"/>
    <path id="Path_21837" data-name="Path 21837" d="M7.883,91.791a2.463,2.463,0,0,1-2.46-2.539,2.41,2.41,0,0,1,2.454-2.335,2.469,2.469,0,0,1,2.49,2.506,2.537,2.537,0,0,1-2.483,2.367" transform="translate(-3.458 -55.442)" fill="#303336"/>
    <path id="Path_21838" data-name="Path 21838" d="M246.9,91.742a2.478,2.478,0,0,1-2.5-2.5,2.552,2.552,0,0,1,2.464-2.365,2.483,2.483,0,0,1,2.486,2.321,2.443,2.443,0,0,1-2.447,2.543" transform="translate(-155.893 -55.417)" fill="#303336"/>
    <path id="Path_21839" data-name="Path 21839" d="M201.33,232.25a2.6,2.6,0,0,1-2.549-2.313,2.549,2.549,0,0,1,2.385-2.643,2.48,2.48,0,0,1,.163,4.956" transform="translate(-126.793 -144.983)" fill="#303336"/>
    <path id="Path_21840" data-name="Path 21840" d="M101.171,253.468a2.45,2.45,0,1,1-.062-4.9,2.468,2.468,0,0,1,2.477,2.34,2.415,2.415,0,0,1-2.415,2.557" transform="translate(-62.907 -158.555)" fill="#303336"/>
    <path id="Path_21841" data-name="Path 21841" d="M78.691,13.379a2.441,2.441,0,0,1-2.577,2.4A2.555,2.555,0,0,1,73.758,13.3a2.5,2.5,0,0,1,2.432-2.4,2.431,2.431,0,0,1,2.5,2.473" transform="translate(-47.047 -6.957)" fill="#303336"/>
    <path id="Path_21842" data-name="Path 21842" d="M236.187,188.442a2.549,2.549,0,0,1,2.424,2.412,2.455,2.455,0,0,1-2.475,2.51,2.566,2.566,0,0,1-2.476-2.374,2.651,2.651,0,0,1,2.528-2.549" transform="translate(-149.045 -120.202)" fill="#303336"/>
    <path id="Path_21843" data-name="Path 21843" d="M129.87,2.489a2.442,2.442,0,0,1-4.883-.086,2.442,2.442,0,1,1,4.883.086" transform="translate(-79.726 0)" fill="#303336"/>
    <path id="Path_21844" data-name="Path 21844" d="M178.51,15.784a2.439,2.439,0,0,1,.121-4.877,2.433,2.433,0,0,1,2.38,2.594,2.4,2.4,0,0,1-2.5,2.282" transform="translate(-112.351 -6.957)" fill="#303336"/>
    <path id="Path_21845" data-name="Path 21845" d="M252.324,143.709a2.429,2.429,0,0,1-2.412-2.388,2.471,2.471,0,0,1,2.527-2.469,2.369,2.369,0,0,1,2.35,2.586,2.293,2.293,0,0,1-2.465,2.271" transform="translate(-159.412 -88.57)" fill="#303336"/>
    <path id="Path_21846" data-name="Path 21846" d="M21.021,190.792a2.4,2.4,0,0,1-2.443,2.525,2.433,2.433,0,0,1-2.426-2.372,2.521,2.521,0,0,1,2.451-2.581,2.558,2.558,0,0,1,2.418,2.428" transform="translate(-10.303 -120.152)" fill="#303336"/>
    <path id="Path_21847" data-name="Path 21847" d="M156.081,251.042a2.421,2.421,0,0,1-2.361,2.432,2.339,2.339,0,0,1-2.508-2.43,2.4,2.4,0,0,1,2.5-2.458,2.5,2.5,0,0,1,2.369,2.457" transform="translate(-96.454 -158.565)" fill="#303336"/>
    <path id="Path_21848" data-name="Path 21848" d="M4.9,141.329a2.428,2.428,0,0,1-2.574,2.4,2.43,2.43,0,1,1,.233-4.854A2.448,2.448,0,0,1,4.9,141.329" transform="translate(0 -88.581)" fill="#303336"/>
    <path id="Path_21849" data-name="Path 21849" d="M126.455,115.871a6.5,6.5,0,1,1-6.5-6.5,6.5,6.5,0,0,1,6.5,6.5" transform="translate(-72.376 -69.768)" fill="#303336"/>
  </g>
</svg>
