<svg xmlns="http://www.w3.org/2000/svg" width="105.379" height="105.381" viewBox="0 0 105.379 105.381">
  <g id="Group_26267" data-name="Group 26267" transform="translate(-103.673 -14989)">
    <path id="Path_16016" data-name="Path 16016" d="M256.67,317.33H291.8v35.127H256.67Z" transform="translate(-144.214 14741.924)" fill="#303336"/>
    <path id="Path_16017" data-name="Path 16017" d="M368.67,317.33H403.8v35.127H368.67Z" transform="translate(-203.525 14741.924)" fill="#303336"/>
    <path id="Path_16018" data-name="Path 16018" d="M343.38,198.469A30.488,30.488,0,0,0,312.908,168H268.473A30.546,30.546,0,0,0,238,198.732v4.39h8.782V211.9H281.91v-8.826a9.341,9.341,0,0,1,.483-2.9,8.812,8.812,0,0,1,8.431-5.752,8.721,8.721,0,0,1,8.166,5.752,9.4,9.4,0,0,1,.482,2.9V211.9H334.6v-8.782h4.39l4.39-.263Z" transform="translate(-134.328 14821.003)" fill="#303336"/>
    <path id="Path_16019" data-name="Path 16019" d="M247.33,280h43.907v8.782H247.33Z" transform="translate(-139.268 14761.689)" fill="#303336"/>
    <path id="Path_16020" data-name="Path 16020" d="M359.33,280h43.907v8.782H359.33Z" transform="translate(-198.579 14761.689)" fill="#303336"/>
  </g>
</svg>
