<svg id="Group_104218" data-name="Group 104218" xmlns="http://www.w3.org/2000/svg" xmlns:xlink="http://www.w3.org/1999/xlink" width="32.985" height="32.989" viewBox="0 0 32.985 32.989">
  <defs>
    <clipPath id="clip-path">
      <rect id="Rectangle_44177" data-name="Rectangle 44177" width="32.985" height="32.989" fill="#fff"/>
    </clipPath>
  </defs>
  <g id="Group_104217" data-name="Group 104217" clip-path="url(#clip-path)">
    <path id="Path_74483" data-name="Path 74483" d="M32.985,22.552c-.06.281-.113.564-.18.843A6.428,6.428,0,0,1,26.6,28.347c-1.632.013-3.263.006-4.895,0a1.288,1.288,0,1,1,0-2.574c1.578,0,3.156,0,4.734,0a3.866,3.866,0,0,0,3.971-3.965q0-7.634,0-15.268a3.862,3.862,0,0,0-3.946-3.958q-9.967,0-19.934,0a3.863,3.863,0,0,0-3.944,3.96q0,7.634,0,15.267a3.866,3.866,0,0,0,3.973,3.963q4.879,0,9.758,0a1.312,1.312,0,0,1,1.469,1.467c0,1.041,0,2.081,0,3.171h3.7a1.294,1.294,0,0,1,.473,2.54.261.261,0,0,0-.052.037H11.086a.259.259,0,0,0-.052-.036,1.294,1.294,0,0,1,.472-2.54h3.686V28.35H14.8c-2.812,0-5.624.015-8.436-.005a6.415,6.415,0,0,1-6.347-6.35q-.029-7.81,0-15.62A6.407,6.407,0,0,1,6.379.011Q16.49-.015,26.6.009a6.4,6.4,0,0,1,6.139,4.7c.1.359.165.727.246,1.091V22.552" transform="translate(0 0.001)" fill="#fff"/>
    <path id="Path_74484" data-name="Path 74484" d="M102.4,100.2c.43,0,.825,0,1.219,0a1.289,1.289,0,1,1,0,2.575q-7.662,0-15.323,0a1.289,1.289,0,1,1,.012-2.575c.394,0,.788,0,1.213,0,0-.232,0-.433,0-.634,0-1.052,0-2.1,0-3.155a1.289,1.289,0,1,1,2.574-.014c0,1.138,0,2.275,0,3.413v.369h2.577v-.353c0-2.018,0-4.036,0-6.053a1.276,1.276,0,0,1,1.02-1.276,1.252,1.252,0,0,1,1.4.67,1.776,1.776,0,0,1,.148.713c.011,1.975.006,3.95.006,5.924v.373h2.577V99.8q0-4.282,0-8.565a1.289,1.289,0,1,1,2.573.03q0,3.848,0,7.7V100.2" transform="translate(-79.463 -82.153)" fill="#fff"/>
  </g>
</svg>
