<svg xmlns="http://www.w3.org/2000/svg" width="26.633" height="34.35" viewBox="0 0 26.633 34.35">
  <g id="Group_104208" data-name="Group 104208" transform="translate(4898.801 -5184.599)">
    <path id="Path_74456" data-name="Path 74456" d="M454.9,203.883a1,1,0,0,1,.382.763,1.008,1.008,0,0,1-.382.763l-4.546,3.656a.989.989,0,1,1-1.24-1.542l3.588-2.878-3.572-2.878h0a.988.988,0,1,1,1.241-1.527Z" transform="translate(-5327.453 4996.364)" fill="#fff"/>
    <path id="Path_74457" data-name="Path 74457" d="M292.789,201.259a.985.985,0,0,1-.149,1.389l-3.572,2.874,3.572,2.874a.989.989,0,0,1-1.24,1.527l-4.526-3.637a1,1,0,0,1-.382-.763.988.988,0,0,1,.382-.763l4.526-3.645a.989.989,0,0,1,1.389.145Z" transform="translate(-5176.313 4995.488)" fill="#fff"/>
    <path id="Path_74458" data-name="Path 74458" d="M245.633,448a.989.989,0,1,1,0,1.977h-6.645a.989.989,0,0,1,0-1.977Z" transform="translate(-5131.125 4765.224)" fill="#fff"/>
    <path id="Path_74459" data-name="Path 74459" d="M161.6,30.252a1.012,1.012,0,0,0,1.008,1.011h4.2a1.012,1.012,0,0,0,1.012-1.011v-.26H161.6ZM173.642,52.6v5.343a4.378,4.378,0,0,1-4.374,4.408h-10.16a4.382,4.382,0,0,1-4.378-4.389V32.412a4.4,4.4,0,0,1,4.4-4.408h10.122a4.4,4.4,0,0,1,4.393,4.408V36.1a.989.989,0,0,1-1.977,0V32.412a2.415,2.415,0,0,0-1.863-2.351v.191a2.992,2.992,0,0,1-2.988,2.988h-4.2a2.988,2.988,0,0,1-2.973-2.988v-.26h-.5a2.42,2.42,0,0,0-2.42,2.42V57.984a2.4,2.4,0,0,0,2.4,2.4h10.141a2.4,2.4,0,0,0,2.4-2.42V52.622a.989.989,0,0,1,1.977,0Z" transform="translate(-5053.531 5156.595)" fill="#fff"/>
  </g>
</svg>
