<svg id="Group_104210" data-name="Group 104210" xmlns="http://www.w3.org/2000/svg" xmlns:xlink="http://www.w3.org/1999/xlink" width="24.473" height="24.473" viewBox="0 0 24.473 24.473">
  <defs>
    <clipPath id="clip-path">
      <rect id="Rectangle_44174" data-name="Rectangle 44174" width="24.473" height="24.473" fill="#fff"/>
    </clipPath>
  </defs>
  <g id="Group_104209" data-name="Group 104209" clip-path="url(#clip-path)">
    <path id="Path_74460" data-name="Path 74460" d="M24.473.526V23.941a.921.921,0,0,1-.962.532q-11.3-.013-22.6-.006c-.657,0-.907-.251-.907-.907q0-11.3-.007-22.6A.922.922,0,0,1,.532,0H23.947a1.1,1.1,0,0,1,.526.526m-1.451,22.5V4.313a.8.8,0,0,0-.087-.011q-5.1,0-10.2.005a.372.372,0,0,0-.257.152c-.507.743-1.011,1.488-1.5,2.244a.935.935,0,0,1-.869.469c-2.8-.009-5.59,0-8.386,0H1.452V23.022ZM1.451,5.723c.044.006.059.01.075.01q4.109,0,8.218-.005A.374.374,0,0,0,10,5.571c.507-.743,1.011-1.488,1.5-2.244a.934.934,0,0,1,.871-.465q5.184.013,10.368.005h.289V1.45H1.451Z" transform="translate(0)" fill="#fff"/>
    <path id="Path_74461" data-name="Path 74461" d="M100.941,146.176c-.289.162-.57.312-.841.476a.257.257,0,0,0-.1.183c-.011.262,0,.525-.006.788a.711.711,0,0,1-.724.729q-1.421.01-2.842,0a.713.713,0,0,1-.732-.746c0-.287.09-.624-.03-.845s-.461-.3-.688-.464a.309.309,0,0,0-.419-.018,5.47,5.47,0,0,1-.6.348.7.7,0,0,1-.991-.271q-.713-1.213-1.408-2.438a.7.7,0,0,1,.273-1.025c.2-.125.41-.245.62-.358a.237.237,0,0,0,.15-.259c-.017-.253.005-.509-.009-.763a.32.32,0,0,0-.119-.22c-.2-.137-.426-.248-.636-.376a.706.706,0,0,1-.281-1.023q.694-1.225,1.408-2.438a.707.707,0,0,1,1.01-.269c.265.145.523.3.772.445.29-.162.57-.312.842-.477a.258.258,0,0,0,.1-.184c.011-.262,0-.525.006-.788a.71.71,0,0,1,.724-.729q1.421-.009,2.842,0a.711.711,0,0,1,.731.722c.008.3-.09.657.037.892s.484.3.72.468a.274.274,0,0,0,.358,0c.194-.124.4-.236.6-.348a.7.7,0,0,1,1.011.258q.714,1.213,1.408,2.438a.7.7,0,0,1-.272,1.026c-.2.126-.409.247-.619.359a.236.236,0,0,0-.151.258c.017.253-.005.509.009.763a.319.319,0,0,0,.118.22c.211.141.441.254.657.389a.7.7,0,0,1,.272.989q-.7,1.248-1.431,2.48a.7.7,0,0,1-.975.259c-.273-.146-.538-.306-.795-.453m-7.084-1.144c.2-.117.383-.22.562-.321a.77.77,0,0,1,.928.07,11.18,11.18,0,0,0,1.25.727.778.778,0,0,1,.53.789c0,.2,0,.407,0,.606h1.434c0-.226,0-.432,0-.639a.77.77,0,0,1,.516-.75,12.31,12.31,0,0,0,1.271-.738.768.768,0,0,1,.908-.072c.187.1.372.21.567.321.046-.07.087-.127.122-.188.2-.343.395-.687.6-1.044-.207-.121-.4-.229-.59-.345a.776.776,0,0,1-.366-.812,10.492,10.492,0,0,0,0-1.447.781.781,0,0,1,.389-.845c.182-.109.368-.213.566-.328l-.716-1.237c-.2.115-.381.218-.561.318a.771.771,0,0,1-.928-.069,11.038,11.038,0,0,0-1.25-.726.777.777,0,0,1-.531-.789c0-.2,0-.408,0-.626H97.128c0,.244,0,.451,0,.657a.714.714,0,0,1-.52.743,4.194,4.194,0,0,0-1.272.739.708.708,0,0,1-.9.079c-.187-.1-.371-.212-.575-.328l-.714,1.237.3.178c.1.06.208.118.308.182a.71.71,0,0,1,.341.777,3.962,3.962,0,0,0,0,1.495.715.715,0,0,1-.366.808c-.188.115-.38.224-.582.343l.713,1.236" transform="translate(-85.605 -126.804)" fill="#fff"/>
    <path id="Path_74462" data-name="Path 74462" d="M45.736,46.352a.716.716,0,1,1,.722-.7.724.724,0,0,1-.722.7" transform="translate(-42.152 -42.053)" fill="#fff"/>
    <path id="Path_74463" data-name="Path 74463" d="M90.663,46.356a.716.716,0,1,1,.7-.722.725.725,0,0,1-.7.722" transform="translate(-84.194 -42.056)" fill="#fff"/>
    <path id="Path_74464" data-name="Path 74464" d="M135.573,44.923a.716.716,0,1,1-.724.7.724.724,0,0,1,.724-.7" transform="translate(-126.24 -42.055)" fill="#fff"/>
    <path id="Path_74465" data-name="Path 74465" d="M155.824,198a2.627,2.627,0,1,1-2.63-2.624,2.635,2.635,0,0,1,2.63,2.624m-2.63,1.2A1.194,1.194,0,1,0,152,198a1.2,1.2,0,0,0,1.191,1.2" transform="translate(-140.957 -182.908)" fill="#fff"/>
  </g>
</svg>
