<svg xmlns="http://www.w3.org/2000/svg" width="43.328" height="26.508" viewBox="0 0 43.328 26.508">
  <g id="Group_2440" data-name="Group 2440" transform="translate(-516.187 -1407.613)">
    <path id="Path_22089" data-name="Path 22089" d="M158.133,114.578h-.445v-1.012h.445a3.4,3.4,0,0,0,.6-.051.045.045,0,0,0,.025,0,6.8,6.8,0,0,0,2.545-.855,6.913,6.913,0,0,0-1.052-12.5.5.5,0,0,1-.329-.44c-.02-.263-.056-.526-.1-.789v-.02a.038.038,0,0,0,0-.02,9.883,9.883,0,0,0-17.627-4.2.506.506,0,0,1-.4.2.522.522,0,0,1-.273-.078,7.471,7.471,0,0,0-11.282,8.115.51.51,0,0,1-.086.425.5.5,0,0,1-.384.2,5.015,5.015,0,0,0-.078,10.013c.111,0,.218.01.324.01h2.079v1.012H130c-.121,0-.253,0-.384-.01a6.024,6.024,0,0,1-.5-11.971,8.746,8.746,0,0,1-.132-1.588,8.481,8.481,0,0,1,12.674-7.291,10.917,10.917,0,0,1,3.481-2.8,10.9,10.9,0,0,1,15.668,7.792.253.253,0,0,1,.01.061c.031.182.056.369.078.557a7.929,7.929,0,0,1,.91,14.212,7.828,7.828,0,0,1-2.909.976,5.543,5.543,0,0,1-.764.056Z" transform="translate(392.961 1318.618)" fill="#fff" stroke="#fff" stroke-width="1.5"/>
    <g id="Group_2381" data-name="Group 2381" transform="translate(528.731 1431.028)">
      <circle id="Ellipse_20" data-name="Ellipse 20" cx="1.547" cy="1.547" r="1.547" transform="translate(0 0)" fill="#fff"/>
      <circle id="Ellipse_21" data-name="Ellipse 21" cx="1.547" cy="1.547" r="1.547" transform="translate(4.949 0)" fill="#fff"/>
      <circle id="Ellipse_22" data-name="Ellipse 22" cx="1.547" cy="1.547" r="1.547" transform="translate(9.898 0)" fill="#fff"/>
      <circle id="Ellipse_23" data-name="Ellipse 23" cx="1.547" cy="1.547" r="1.547" transform="translate(14.848 0)" fill="#fff"/>
    </g>
  </g>
</svg>
