<svg xmlns="http://www.w3.org/2000/svg" xmlns:xlink="http://www.w3.org/1999/xlink" width="31.231" height="34.35" viewBox="0 0 31.231 34.35">
  <defs>
    <clipPath id="clip-path">
      <rect id="Rectangle_44176" data-name="Rectangle 44176" width="31.231" height="34.35" fill="#fff" stroke="#fff" stroke-width="0.5"/>
    </clipPath>
  </defs>
  <g id="Group_104216" data-name="Group 104216" transform="translate(-921.21 -5112.65)">
    <g id="Group_104215" data-name="Group 104215" transform="translate(921.21 5112.65)">
      <g id="Group_104214" data-name="Group 104214" clip-path="url(#clip-path)">
        <path id="Path_74475" data-name="Path 74475" d="M9.685,5.036c.73-.353,1.405-.714,2.108-1.009a14.906,14.906,0,0,1,1.787-.595.352.352,0,0,0,.31-.425c-.016-.457-.012-.916,0-1.374A1.625,1.625,0,0,1,15.53,0c.366-.006.733,0,1.1,0a1.038,1.038,0,0,1,1.15,1.147q.006,3.829,0,7.659c0,.836,0,1.671,0,2.507,0,.454-.135.609-.564.732a5.244,5.244,0,0,0-3.861,3.936c-.116.439-.389.658-.743.578-.369-.083-.544-.41-.427-.866a6.4,6.4,0,0,1,4.078-4.611c.195-.076.322-.133.321-.393-.011-3.079-.007-6.159-.008-9.238,0-.067-.008-.135-.016-.244a10.27,10.27,0,0,0-1.089.009c-.3.032-.392.278-.391.559,0,.55,0,1.1,0,1.648a1.013,1.013,0,0,1-.86,1.077,13.338,13.338,0,0,0-3.91,1.626,1.051,1.051,0,0,1-1.378-.16c-.3-.286-.58-.586-.876-.873A.9.9,0,0,0,6.69,5.08q-.812.791-1.6,1.6A.9.9,0,0,0,5.1,8.049c.279.288.569.564.848.852a1.051,1.051,0,0,1,.167,1.43A13.063,13.063,0,0,0,4.53,14.146a1.064,1.064,0,0,1-1.2.931c-.389,0-.779-.005-1.168,0A.9.9,0,0,0,1.21,16q-.029,1.167,0,2.335a.9.9,0,0,0,.972.928c.423,0,.847-.005,1.271,0a1.019,1.019,0,0,1,1.045.82,13.661,13.661,0,0,0,1.665,4.006,1.011,1.011,0,0,1-.175,1.317c-.295.3-.6.6-.9.9a.891.891,0,0,0-.013,1.342q.8.825,1.627,1.627a.887.887,0,0,0,1.339-.016c.3-.295.595-.6.9-.9a1.032,1.032,0,0,1,1.35-.155,13.293,13.293,0,0,0,3.976,1.642,1.013,1.013,0,0,1,.809,1.051c.005.538,0,1.076,0,1.614,0,.47.153.62.613.622.263,0,.526,0,.789-.008.02,0,.039-.018.094-.044v-.318q0-4.533.005-9.067a.385.385,0,0,0-.3-.44,6.284,6.284,0,0,1-2.839-2.028.619.619,0,0,1-.053-.844.594.594,0,0,1,.971.062,5.313,5.313,0,0,0,2.63,1.781c.775.233.793.257.793,1.076q0,4.877,0,9.754c0,.92-.372,1.289-1.292,1.289-.321,0-.641.006-.962,0a1.643,1.643,0,0,1-1.639-1.64c-.009-.481-.01-.962,0-1.442a.277.277,0,0,0-.247-.331,14.119,14.119,0,0,1-3.96-1.684c-.245.273-.49.571-.762.843a2.106,2.106,0,0,1-3.092.022q-.81-.792-1.6-1.6a2.1,2.1,0,0,1-.006-3.045c.27-.279.56-.539.851-.819-.069-.128-.12-.227-.175-.323A13.3,13.3,0,0,1,3.46,20.847c-.075-.3-.2-.4-.51-.378a5.925,5.925,0,0,1-1.164-.036A2.043,2.043,0,0,1,.016,18.46q-.031-1.287,0-2.575a2.062,2.062,0,0,1,1.971-2c.377-.02.756,0,1.132-.022a.372.372,0,0,0,.274-.2A14.949,14.949,0,0,1,5.078,9.715c-.269-.261-.542-.518-.806-.784a2.112,2.112,0,0,1,0-3.142q.774-.78,1.554-1.554A2.105,2.105,0,0,1,8.9,4.222c.278.271.541.557.789.814" transform="translate(0 -0.001)" fill="#fff" stroke="#fff" stroke-width="0.5"/>
        <path id="Path_74476" data-name="Path 74476" d="M283.237,138.877c0-.355-.007-.71,0-1.064a1.577,1.577,0,0,1,1.574-1.573c.721-.01,1.441-.012,2.162,0a1.57,1.57,0,0,1,1.548,1.529c.018.743.019,1.487,0,2.231A1.565,1.565,0,0,1,287,141.52q-1.114.032-2.23,0a1.572,1.572,0,0,1-1.531-1.546c-.011-.366,0-.732,0-1.1m4.077.016h0c0-.343,0-.685,0-1.028a.374.374,0,0,0-.4-.418c-.685-.009-1.371-.005-2.056,0a.373.373,0,0,0-.409.407q-.008,1.028,0,2.056a.366.366,0,0,0,.411.4l2.022,0a.383.383,0,0,0,.427-.424c.006-.331,0-.663,0-.994" transform="translate(-263.778 -126.874)" fill="#fff" stroke="#fff" stroke-width="0.5"/>
        <path id="Path_74477" data-name="Path 74477" d="M283.231,388.858c0-.355-.01-.71,0-1.064a1.577,1.577,0,0,1,1.564-1.547c.721-.01,1.442-.011,2.162,0a1.573,1.573,0,0,1,1.558,1.555c.015.72.013,1.442,0,2.162a1.575,1.575,0,0,1-1.548,1.565q-1.1.026-2.2,0a1.571,1.571,0,0,1-1.539-1.538c-.013-.377,0-.755,0-1.132Zm4.077.035c0-.32,0-.64,0-.96-.007-.356-.122-.478-.473-.482q-.959-.011-1.919,0c-.35,0-.468.127-.472.485-.006.64,0,1.279,0,1.919,0,.308.141.465.458.463q.977-.006,1.953,0c.317,0,.458-.158.456-.465s0-.64,0-.96" transform="translate(-263.773 -359.708)" fill="#fff" stroke="#fff" stroke-width="0.5"/>
        <path id="Path_74478" data-name="Path 74478" d="M285.827,20.953c.366,0,.732-.009,1.1,0a1.569,1.569,0,0,1,1.551,1.559c.013.709.011,1.418,0,2.127a1.565,1.565,0,0,1-1.523,1.587c-.742.027-1.487.024-2.23,0a1.56,1.56,0,0,1-1.533-1.576c-.012-.709-.013-1.418,0-2.127a1.563,1.563,0,0,1,1.572-1.57c.354-.009.709,0,1.064,0M284.4,23.579c0,.331,0,.663,0,.994a.406.406,0,0,0,.469.455q.96,0,1.92,0c.307,0,.474-.135.475-.449q0-.994,0-1.988a.4.4,0,0,0-.451-.44H284.86a.409.409,0,0,0-.46.468q0,.48,0,.96" transform="translate(-263.73 -19.51)" fill="#fff" stroke="#fff" stroke-width="0.5"/>
        <path id="Path_74479" data-name="Path 74479" d="M285.824,270.963c.366,0,.732-.01,1.1,0a1.568,1.568,0,0,1,1.541,1.567c.012.709.011,1.418,0,2.127a1.556,1.556,0,0,1-1.5,1.573c-.765.032-1.533.032-2.3,0a1.548,1.548,0,0,1-1.487-1.547q-.022-1.08,0-2.161a1.562,1.562,0,0,1,1.547-1.56c.366-.011.732,0,1.1,0m.009,1.2c-.331,0-.663,0-.994,0a.4.4,0,0,0-.45.441q-.005.994,0,1.988c0,.313.169.45.477.448.64,0,1.28,0,1.92,0a.407.407,0,0,0,.468-.458c0-.651,0-1.3,0-1.954a.408.408,0,0,0-.46-.466h-.96" transform="translate(-263.717 -252.347)" fill="#fff" stroke="#fff" stroke-width="0.5"/>
        <path id="Path_74480" data-name="Path 74480" d="M382.7,214.029c0,.378.012.755,0,1.132a1.551,1.551,0,0,1-1.5,1.5c-.754.021-1.51.019-2.265,0a1.569,1.569,0,0,1-1.518-1.561c-.023-.72-.024-1.442,0-2.162a1.586,1.586,0,0,1,1.628-1.561q1.012-.01,2.025,0A1.58,1.58,0,0,1,382.7,213c0,.343,0,.686,0,1.029Zm-4.07.02c0,.32,0,.64,0,.96a.4.4,0,0,0,.438.455q.994.012,1.989,0a.4.4,0,0,0,.447-.417c.01-.686.01-1.372,0-2.058a.379.379,0,0,0-.421-.4c-.674,0-1.349,0-2.023,0-.3,0-.43.169-.427.46,0,.332,0,.663,0,.995" transform="translate(-351.473 -196.855)" fill="#fff" stroke="#fff" stroke-width="0.5"/>
        <path id="Path_74481" data-name="Path 74481" d="M382.723,341.743c0,.309,0,.618,0,.927a1.669,1.669,0,0,1-1.621,1.7c-.685.027-1.373.029-2.058,0a1.679,1.679,0,0,1-1.607-1.691q-.026-.943,0-1.887a1.681,1.681,0,0,1,1.734-1.7q.926-.013,1.853,0a1.665,1.665,0,0,1,1.7,1.725c0,.309,0,.618,0,.926m-4.073,0v.412c0,.149,0,.3,0,.446.009.372.177.553.541.557q.892.011,1.785,0a.484.484,0,0,0,.546-.522q.019-.909,0-1.819a.486.486,0,0,0-.513-.527q-.926-.018-1.853,0a.475.475,0,0,0-.506.526c-.009.309,0,.618,0,.927" transform="translate(-351.497 -315.793)" fill="#fff" stroke="#fff" stroke-width="0.5"/>
        <path id="Path_74482" data-name="Path 74482" d="M380.057,89.124c.332,0,.664-.01.995,0a1.657,1.657,0,0,1,1.617,1.631c.014.652.01,1.3,0,1.956a1.674,1.674,0,0,1-1.665,1.7c-.64.017-1.281.013-1.921,0a1.681,1.681,0,0,1-1.693-1.641c-.029-.662-.031-1.328,0-1.99a1.674,1.674,0,0,1,1.741-1.657c.309,0,.618,0,.926,0Zm-.035,4.073c.3,0,.6,0,.893,0a.5.5,0,0,0,.561-.545c.01-.583.009-1.167,0-1.751a.507.507,0,0,0-.569-.576q-.875-.012-1.751,0a.49.49,0,0,0-.554.549q-.01.892,0,1.785a.477.477,0,0,0,.527.536c.3.008.595,0,.892,0" transform="translate(-351.447 -82.998)" fill="#fff" stroke="#fff" stroke-width="0.5"/>
      </g>
    </g>
  </g>
</svg>
