<svg xmlns="http://www.w3.org/2000/svg" width="29.707" height="29.554" viewBox="0 0 29.707 29.554">
  <path id="noun-design-2844280" d="M110.991,30.114a2.268,2.268,0,0,1,1.612.668l3.683,3.683a2.276,2.276,0,0,1,0,3.222l-6.929,6.931.23.232.214.212.559.557,1.689,1.685,2.453,2.45c.091.091.047.014.084.1a8.594,8.594,0,0,1,.252.837c.279,1.025.829,3.169,2.036,7.728a.535.535,0,0,1-.668.663c-4.6-1.248-6.746-1.816-7.762-2.1-.509-.142-.741-.216-.82-.25s.01.02-.082-.073v0l-5.113-5.11L95.476,58.5a2.276,2.276,0,0,1-3.222,0l-3.683-3.683a2.269,2.269,0,0,1,0-3.222l.1-.1v0l6.855-6.855-6.148-6.15a4.886,4.886,0,0,1,6.9-6.916c.321.321,5.685,5.668,5.935,5.916l.23.23,6.941-6.939a2.265,2.265,0,0,1,1.61-.668Zm0,1.084a1.193,1.193,0,0,0-.843.349l-6.939,6.939,5.378,5.363,1.666-1.666L107.568,39.5a.542.542,0,0,1,.767-.767l2.685,2.683,2.873-2.873-1.457-1.459a.543.543,0,1,1,.768-.767l1.459,1.457.854-.852a1.2,1.2,0,0,0,0-1.689l-3.683-3.683a1.2,1.2,0,0,0-.845-.349Zm-18.166.038a3.8,3.8,0,0,0-2.685,6.486L92.413,40l5.378-5.376-2.28-2.277a3.794,3.794,0,0,0-2.687-1.107Zm5.736,4.15-5.376,5.378,14.768,14.771,5.4-5.4L98.789,35.617ZM96.29,45.409l-6.953,6.95a1.2,1.2,0,0,0,0,1.687v0l3.683,3.682a1.2,1.2,0,0,0,1.687,0l.852-.854L94.1,55.417a.542.542,0,0,1,.767-.767l1.459,1.457L99.2,53.234,96.52,50.549a.543.543,0,0,1,.767-.768l2.685,2.685,1.687-1.687L96.522,45.64Zm17.546,5.78-4.821,4.817,6.566,1.78-1.6-6.048Z" transform="translate(-87.65 -29.862)" fill="#fff" stroke="#fff" stroke-width="0.5"/>
</svg>
